<svg width="32" height="32" viewBox="0 0 32 32" fill="none" xmlns="http://www.w3.org/2000/svg">
<path d="M32 16C32 7.16344 24.8366 0 16 0C7.16344 0 0 7.16344 0 16C0 24.8366 7.16344 32 16 32C24.8366 32 32 24.8366 32 16Z" fill="white"/>
<path fill-rule="evenodd" clip-rule="evenodd" d="M31.6706 16.3606C31.6706 15.2261 31.5688 14.1352 31.3797 13.0879H16.3105V19.277H24.9215C24.5506 21.277 23.4233 22.9715 21.7287 24.1061V28.1207H26.8997C29.9251 25.3352 31.6706 21.2334 31.6706 16.3606Z" fill="#4285F4"/>
<path fill-rule="evenodd" clip-rule="evenodd" d="M16.3099 31.9991C20.6299 31.9991 24.2518 30.5664 26.899 28.1227L21.7281 24.1082C20.2954 25.0682 18.4627 25.6354 16.3099 25.6354C12.1426 25.6354 8.61537 22.8209 7.35718 19.0391H2.01172V23.1845C4.64445 28.4136 10.0554 31.9991 16.3099 31.9991Z" fill="#34A853"/>
<path fill-rule="evenodd" clip-rule="evenodd" d="M7.35783 19.038C7.03783 18.078 6.85602 17.0525 6.85602 15.998C6.85602 14.9434 7.03783 13.918 7.35783 12.958V8.8125H2.01237C0.92873 10.9725 0.310547 13.4161 0.310547 15.998C0.310547 18.5798 0.92873 21.0234 2.01237 23.1834L7.35783 19.038Z" fill="#FBBC05"/>
<path fill-rule="evenodd" clip-rule="evenodd" d="M16.3099 6.36365C18.659 6.36365 20.7681 7.17092 22.4263 8.75638L27.0154 4.16728C24.2445 1.58546 20.6227 0 16.3099 0C10.0554 0 4.64445 3.58546 2.01172 8.81456L7.35718 12.96C8.61537 9.1782 12.1426 6.36365 16.3099 6.36365Z" fill="#EA4335"/>
</svg>
